<?xml version="1.0" encoding="utf-8"?><!DOCTYPE svg PUBLIC "-//W3C//DTD SVG 1.1//EN" "http://www.w3.org/Graphics/SVG/1.1/DTD/svg11.dtd"><svg version="1.1" id="Contours" xmlns="http://www.w3.org/2000/svg" xmlns:xlink="http://www.w3.org/1999/xlink" x="0px" y="0px" width="1174.207397px" height="1174.207397px" viewBox="-0.000000 -0.000000 1174.207397 1737.701294" enable-background="new 0 0 1174.207397 1174.207397" xml:space="preserve" stroke="black" fill="none" stroke-linecap='round' stroke-linejoin='round'><path class="selected"  fill="#000000" opacity="1.000000" stroke="none" 
 	d="
M286.345006 1176.594393 C285.682882 1175.935613 285.020759 1175.276833 284.358636 1174.618053 C285.190795 1174.129366 286.022953 1173.640679 286.855112 1173.151992 C288.035536 1173.979753 288.932636 1175.204056 289.366254 1176.579033 C288.515136 1177.273412 287.194571 1177.314699 286.301737 1176.674844 z"/><path class="selected"  fill="#000000" opacity="1.000000" stroke="none" 
 	d="
M815.177487 468.014987 C811.570024 459.866689 805.066671 453.036084 797.105151 449.033242 C795.496420 448.224415 793.697302 447.397909 792.950467 445.759480 C791.632104 442.867199 794.090609 438.556571 791.509675 436.701269 C799.221737 439.509866 806.290989 444.067760 812.032193 449.933143 C817.598668 454.742792 821.931261 460.968852 824.506953 467.859729 C821.397131 467.911481 818.287309 467.963234 815.177487 468.014987 z"/><path class="selected"  fill="#000000" opacity="1.000000" stroke="none" 
 	d="
M380.974442 495.062485 C384.983562 490.125847 389.730143 484.944565 396.044017 484.184023 C364.161257 524.240565 331.135843 566.834098 323.528349 617.461787 C321.514125 619.213892 318.395327 620.854451 316.416676 619.062271 C314.783309 617.582836 315.340639 614.936601 316.045393 612.848555 C330.458745 570.144763 352.561363 530.048987 380.974442 495.062485 z"/><path class="selected"  fill="#000000" opacity="1.000000" stroke="none" 
 	d="
M379.057267 526.439186 C381.509561 522.617459 383.713440 516.936546 380.135148 514.140984 C384.652509 513.574372 388.950092 511.391067 392.071608 508.076893 C394.307753 505.702734 396.162586 502.631300 399.273243 501.651101 C402.383899 500.670902 406.547140 504.157732 404.590272 506.766878 C393.457087 517.586353 383.744696 529.866100 375.780578 543.192077 C373.795687 543.509864 372.111180 541.378748 372.102106 539.368599 C372.093031 537.358450 373.217164 535.540576 374.302759 533.848752 C375.887595 531.378897 377.472431 528.909041 379.057267 526.439186 z"/><path class="selected"  fill="#000000" opacity="1.000000" stroke="none" 
 	d="
M789.017967 418.385569 C786.363090 417.363193 787.203444 412.888685 789.818174 411.767610 C792.432904 410.646534 795.428853 411.773350 797.980333 413.031751 C819.488816 423.639828 834.775214 443.478991 848.427569 463.195973 C849.343887 464.519335 850.293745 465.962339 850.265889 467.571734 C850.232413 469.505791 848.591605 471.250985 846.673941 471.504485 C844.756277 471.757985 842.768818 470.570364 841.985481 468.801726 C831.855521 445.930065 812.361467 427.375006 789.017967 418.385569 z"/><path class="selected"  fill="#000000" opacity="1.000000" stroke="none" 
 	d="
M557.101294 827.100925 C531.805270 824.811842 509.966167 802.101658 508.667691 776.735485 C507.369216 751.369312 526.775208 726.547823 551.705270 721.687703 C571.692724 717.791146 592.211078 713.938091 612.289538 717.334693 C632.367998 720.731294 652.230751 732.948156 658.900101 752.188770 C667.137397 775.952787 652.204586 803.073105 630.456254 815.706063 C608.707921 828.339022 582.150121 829.367638 557.101297 827.100923 M529.728297 788.640281 C528.620414 788.755273 528.307871 790.212912 528.343565 791.326175 C528.736684 803.587209 538.562755 816.031073 550.824356 815.656052 C552.765116 815.596694 555.231029 814.586186 555.031614 812.654785 C553.371614 808.884064 547.575509 811.136228 543.645880 809.898510 C540.689001 808.967182 538.954476 805.989276 537.498884 803.252169 C534.908689 798.381539 532.318493 793.510910 529.728297 788.640281 M633.645502 741.979710 C636.120300 740.739163 636.101544 736.903872 634.292996 734.807987 C632.484448 732.712102 629.631509 731.915801 626.951205 731.223307 C624.775499 730.661185 622.599793 730.099061 620.424088 729.536938 C619.220723 729.226032 617.922907 728.919118 616.762744 729.364958 C615.602582 729.810797 614.802003 731.356810 615.559383 732.342267 C619.026574 734.782888 621.271790 738.877895 621.465071 743.113537 C624.244370 742.977010 626.492798 739.948780 625.819578 737.248794 C626.973482 737.356956 628.166941 736.912643 628.969188 736.076227 C629.693935 738.545375 631.407810 740.709009 633.645502 741.979710 M609.961722 730.491798 C611.257978 729.013505 608.602525 727.306582 606.645526 727.117414 C602.989515 726.764027 599.333506 726.410637 595.677496 726.057248 C593.214408 725.819166 590.609942 725.604007 588.374881 726.666075 C586.139821 727.728143 584.551483 730.565483 585.721933 732.745742 C590.185007 731.500226 594.792206 730.771970 599.421845 730.580210 C600.991990 730.515174 602.836024 730.646601 603.706517 731.954968 C604.460864 733.088766 604.128896 734.583423 604.097551 735.944876 C604.066206 737.306329 604.738586 738.997654 606.100372 739.006330 C606.152523 735.801530 607.585159 732.642474 609.961722 730.491798 M571.810393 809.116316 C571.267967 810.919975 571.113839 812.839358 571.361497 814.706461 C568.233694 815.169717 565.055387 815.291185 561.901349 815.068006 C561.736763 816.292655 561.572177 817.517303 561.407591 818.741952 C569.363582 820.655085 577.819049 820.448741 585.672250 818.149806 C583.106733 815.700123 579.353264 814.556871 575.857765 815.160457 C575.288274 813.711389 575.112434 812.109787 575.353963 810.571677 C574.172773 810.086556 572.991583 809.601436 571.810393 809.116316 M565.592085 762.068116 C562.257603 763.231387 559.397018 765.697549 557.755320 768.824336 C556.254795 771.682244 555.791330 775.167285 556.936186 778.185317 C561.597581 774.056889 564.724729 768.234169 565.592087 762.068117 M517.343545 775.354138 C519.877155 774.453943 520.817212 771.389594 521.131064 768.719196 C521.593095 764.787964 521.457568 760.787051 520.730567 756.896098 C517.165831 762.248339 515.911322 769.084962 517.343545 775.354138 M549.809575 757.995861 C552.531519 754.916473 554.112235 750.850523 554.185028 746.741227 C551.017307 749.250664 548.626984 752.727861 547.418661 756.584243 C548.215632 757.054782 549.012604 757.525322 549.809575 757.995861 M602.814330 811.079371 C603.330545 809.552530 603.846760 808.025689 604.362974 806.498848 C602.429085 805.682753 599.950116 806.513840 598.898935 808.330693 C597.847754 810.147547 598.362801 812.710888 600.034181 813.980703 C601.472168 813.850948 602.694857 812.507133 602.688609 811.063316 M638.537696 742.712388 C636.881258 745.555191 636.175185 748.941048 636.557317 752.208966 C636.784397 751.453605 637.881547 751.142597 638.471238 751.666431 C639.580149 750.122603 640.723965 748.493228 640.967268 746.608054 C641.210571 744.722881 640.209899 742.530651 638.353066 742.124146 M615.487890 804.498747 C614.189858 802.778336 611.251634 802.690891 609.853588 804.331064 C608.455541 805.971236 609.007242 808.858525 610.911522 809.867692 C612.652477 808.352544 614.151561 806.560065 615.334911 804.578581 M578.589120 726.451868 C577.034689 725.308347 574.591101 725.537751 573.378027 727.038533 C572.164953 728.539315 572.535223 731.091682 574.192635 732.080054 C575.893803 730.888205 577.594967 729.696353 579.296131 728.504502 C578.504992 728.190480 578.436271 726.867125 579.190629 726.472846 M571.407311 738.378959 C569.665831 737.920301 567.704324 738.412336 566.385512 739.638653 C566.153862 741.516293 566.340781 743.444406 566.928778 745.242587 C569.338881 743.871496 571.062677 741.354591 571.470071 738.611870 M590.396675 808.724148 C588.454681 810.923573 589.379948 814.940996 592.088378 816.069365 C593.841362 814.068118 593.128975 810.469630 590.745728 809.287223 M541.258259 738.593023 C541.524926 737.457368 540.714118 735.610309 539.870328 736.415817 C537.824735 736.615494 536.124239 738.607491 536.248011 740.659075 C538.120508 741.560257 540.659489 740.559452 541.413452 738.622983 M534.670812 752.381311 C534.111272 751.656718 533.551731 750.932124 532.992191 750.207531 C530.881696 752.011173 528.679642 755.275156 530.709726 757.168845 C531.906707 755.632501 533.103689 754.096156 534.300671 752.559812 M550.803683 730.185783 C549.981756 729.537897 549.177865 731.288201 549.872896 732.070665 C550.590790 732.050751 551.424632 731.969232 551.815462 731.366722 C552.206291 730.764212 551.405245 729.735346 550.883027 730.228351 z"/><path class="selected"  fill="#000000" opacity="1.000000" stroke="none" 
 	d="
M626.513100 143.988250 C612.171715 103.462116 635.046366 56.819937 670.368547 32.317154 C705.690729 7.814372 750.382720 1.299620 793.356995 0.179585 C855.180473 -1.431711 919.325114 7.472423 971.794748 40.208886 C1024.264381 72.945348 1062.510716 133.332610 1055.708514 194.801858 C1048.906312 256.271107 987.741125 310.418808 927.153179 298.015615 C976.542828 293.825686 1025.853883 265.038363 1044.110197 218.955825 C1064.338505 167.895584 1041.799876 107.061856 1000.996564 70.300157 C960.193252 33.538459 904.806618 17.194089 850.341109 10.134271 C795.041338 2.966316 736.365554 4.829504 686.995080 30.752476 C665.930187 41.813026 646.460124 57.847444 636.782107 79.582241 C612.766911 133.515333 656.125151 191.965113 696.458513 235.078080 C606.079625 228.274572 513.739130 233.271998 427.579825 261.400372 C341.420520 289.528746 261.569747 342.167263 210.864885 417.291482 C230.707695 385.177878 248.655628 351.893585 264.584266 317.669337 C275.378239 294.477432 284.062953 263.825833 265.749997 245.964984 C248.638129 229.275576 220.144851 236.296163 198.595432 246.639024 C98.359893 294.748089 24.804168 394.704520 8.684699 504.712738 C5.731282 524.868499 7.940267 550.880189 27.064160 557.898314 C35.052219 560.829788 43.944915 559.327988 52.172114 557.156390 C104.637676 543.307923 148.998012 501.936613 166.466825 450.562925 C112.921306 568.281712 73.035269 695.328283 77.229586 824.584784 C81.423904 953.841286 134.928530 1085.951361 238.907201 1162.849158 C259.513640 1178.088724 294.439519 1188.011516 306.054361 1165.164960 C342.024475 1094.411204 387.520975 1028.508124 440.930014 969.793416 C409.438328 919.129949 404.775343 852.788720 428.870353 798.218181 C384.414175 734.780709 371.718999 650.191492 395.594633 576.498760 C399.912005 563.173082 405.722858 549.678013 416.436994 540.654671 C435.451415 524.640908 465.682176 527.850994 485.359343 543.043028 C505.036510 558.235061 515.597851 582.609412 520.670721 606.945698 C527.695967 640.648191 525.569970 676.212471 514.579702 708.838015 C566.258599 677.419913 628.076983 662.987114 688.325303 668.273455 C676.626906 625.181066 677.877488 578.661589 691.874219 536.259961 C703.763293 500.243253 735.794083 462.387106 772.448307 472.134987 C799.705641 479.383845 813.785949 509.671810 818.647829 537.454364 C828.973897 596.461277 813.076782 659.569208 776.028752 706.642416 C781.246409 711.515978 786.464066 716.389540 791.681722 721.263102 C801.378708 711.268345 811.075693 701.273588 820.772678 691.278831 C804.571369 703.005050 801.339518 726.369967 805.838593 745.857013 C810.337668 765.344059 820.862560 782.877144 827.235405 801.834293 C840.842211 842.310109 834.016003 889.096743 809.411694 923.997529 C800.091396 937.218200 806.729849 955.330257 813.493135 970.024201 C869.024065 1090.670564 918.017488 1214.325659 960.186794 1340.266031 C909.487717 1255.132547 886.259472 1156.931899 850.044875 1064.700616 C813.830278 972.469333 759.025128 880.477492 670.033491 836.904621 C650.642025 827.410001 626.747043 844.244435 620.445886 864.895638 C614.144729 885.546841 619.945148 907.698944 625.224110 928.634782 C630.503072 949.570620 635.140848 972.299950 626.799336 992.214667 C606.651839 1040.315266 602.652875 1095.017634 615.590860 1145.536916 C618.246995 1155.908391 621.536474 1167.198333 617.128670 1176.955065 C582.443271 1253.731638 622.448708 1341.017871 644.106226 1422.434522 C660.015471 1482.241813 667.628134 1548.237666 709.205274 1594.078233 C757.757468 1647.609094 843.649188 1656.640955 909.146064 1626.095451 C974.642940 1595.549947 1020.516932 1532.185807 1044.063859 1463.860037 C1075.139576 1373.688085 1070.726654 1271.804598 1031.970633 1184.657298 C1017.032218 1151.066580 987.581113 1115.037975 951.536078 1122.266253 C1056.074917 1056.055445 1131.783520 945.917507 1156.152559 824.598134 C1165.748805 776.823965 1167.686870 727.800528 1166.523230 679.086001 C1164.654348 600.847270 1154.252526 520.855667 1117.959428 451.518788 C1081.666330 382.181909 1015.611915 324.776997 937.899396 315.527341 C1011.900300 317.456007 1078.813630 367.094539 1117.079681 430.463010 C1155.345731 493.831481 1168.724969 569.207372 1172.831887 643.119394 C1177.703758 730.798254 1170.265576 820.187520 1140.321937 902.738692 C1110.378298 985.289865 1056.643747 1060.790997 982.250808 1107.449418 C1044.669786 1163.404890 1070.287994 1251.155453 1071.073189 1334.979838 C1071.786509 1411.131287 1053.378602 1489.179691 1008.300318 1550.559659 C963.222034 1611.939627 889.216252 1654.267209 813.147112 1650.656381 C779.202494 1649.045108 751.239517 1674.879274 722.844375 1693.548746 C619.634466 1761.408078 464.951394 1732.502691 393.212205 1631.950898 C352.528497 1669.881289 309.033762 1706.959837 256.748734 1725.937575 C204.463706 1744.915312 141.191643 1742.568510 98.589358 1706.806463 C55.734267 1670.832206 42.699809 1610.106695 43.341542 1554.157662 C45.033242 1406.667966 128.763130 1262.759112 256.148182 1188.401055 C136.643579 1275.116443 49.415369 1413.867621 48.974830 1561.518271 C48.850369 1603.231144 56.392083 1647.042347 82.572533 1679.516387 C117.031562 1722.259114 178.435442 1736.541439 232.239461 1725.610168 C286.043480 1714.678898 333.158619 1682.306083 373.756759 1645.344533 C506.849133 1524.173928 584.069930 1343.933765 579.984160 1163.991553 C578.542805 1100.512560 593.184303 1036.732072 622.166941 980.237238 C637.618511 950.118037 608.351773 912.126386 574.812099 907.542985 C541.272426 902.959584 508.925493 921.441052 482.670569 942.809165 C444.297538 974.039852 412.568279 1012.623124 383.315652 1052.524617 C286.016543 1185.243631 213.225876 1335.870384 169.694938 1494.572970 C188.713840 1390.308842 227.207917 1289.630462 282.601574 1199.274113 C171.303150 1141.609672 98.275735 1023.902652 76.761119 900.413186 C55.246502 776.923721 80.729306 648.755035 129.414104 533.246087 C107.461168 534.037877 88.986146 548.877950 69.455168 558.932760 C49.924189 568.987570 22.788649 573.082873 8.576413 556.332628 C-0.992783 545.054573 -0.783015 528.627763 0.879619 513.930835 C14.271067 395.556552 93.644111 286.832673 202.310984 238.013492 C219.730743 230.187571 239.979421 223.829693 257.509815 231.404542 C276.157226 239.462052 285.559818 261.474063 284.969140 281.779247 C284.378462 302.084431 275.826296 321.200107 267.424258 339.694840 C380.820267 254.023355 526.358898 211.994625 667.969363 224.025194 C662.949206 194.210214 636.599594 172.490841 626.513100 143.988251 M598.326237 1138.387539 C594.838978 1126.600048 601.382706 1114.519949 605.749548 1103.029230 C610.116390 1091.538512 611.170575 1076.026353 600.819138 1069.396597 C601.442863 1088.912199 594.066875 1108.565226 580.756988 1122.851396 C575.687144 1128.293115 580.547078 1136.808146 584.425484 1143.154294 C596.760209 1163.337282 597.422661 1190.125469 586.100632 1210.893475 C572.459254 1235.915861 598.995856 1272.897847 579.084542 1293.287711 C566.990881 1305.672032 564.322470 1324.137867 561.329369 1341.186896 C542.560448 1448.096760 486.345160 1548.055031 404.738753 1619.625876 C400.304880 1623.514492 403.601383 1630.748575 407.244012 1635.386659 C449.197994 1688.805747 515.151663 1722.605853 583.015873 1725.466671 C650.880084 1728.327490 719.444398 1700.197995 765.745311 1650.499294 C743.300496 1635.356253 720.947786 1619.482730 703.305325 1598.944352 C658.650481 1546.959649 650.637508 1474.184881 633.758190 1407.765358 C626.439207 1378.965413 617.128055 1350.671927 605.913310 1323.154045 C597.397727 1302.259162 587.916397 1277.803096 599.309971 1258.327527 C606.330682 1246.326703 600.814439 1231.315132 597.233737 1217.880523 C593.653034 1204.445915 594.216449 1186.560660 606.931574 1180.936094 C614.415468 1177.625575 614.580682 1166.680556 610.807835 1159.418750 C607.034988 1152.156943 600.647785 1146.234744 598.326237 1138.387539 M809.757268 913.704491 C824.222673 879.416391 827.723356 840.599285 819.625935 804.276378 C811.528514 767.953472 791.871792 734.298818 764.212272 709.401575 C757.231749 703.118177 749.703968 697.345606 741.300337 693.151828 C731.040369 688.031657 719.733388 685.387147 708.443612 683.381143 C626.340379 668.792775 536.320129 688.560985 475.124463 745.207713 C466.238582 753.433067 457.959460 762.406008 451.365242 772.561381 C440.208545 789.743161 434.220777 809.737158 429.595198 829.694349 C424.733696 850.669437 421.205871 872.162719 422.361560 893.662786 C423.517248 915.162854 429.621109 936.805184 442.508211 954.053695 C445.195419 957.650340 450.195459 961.300174 453.653484 958.436782 C468.667569 946.004462 484.285357 934.301261 500.433408 923.382210 C516.433549 912.563173 533.337845 902.353218 552.168004 898.054245 C570.998162 893.755273 592.246905 896.170784 607.099505 908.518104 C609.916089 891.566305 613.917855 874.811537 619.065921 858.416597 C622.771445 846.615686 627.503845 834.379995 637.200595 826.701098 C646.897344 819.022201 662.979866 818.143796 670.478040 827.980960 C680.385512 840.978984 697.629308 845.272132 712.428154 852.207602 C744.022818 867.014410 766.673388 895.820753 785.261556 925.349457 C788.249956 930.096756 795.549763 930.347317 800.242531 927.273995 C804.935298 924.200673 807.576809 918.872952 809.757270 913.704493 M442.136397 771.481118 C447.270847 761.633508 454.047523 752.644624 462.101736 744.998210 C473.387528 734.283837 487.148674 726.184151 497.153339 714.264690 C516.422096 691.308077 518.369910 658.501318 515.166835 628.701462 C512.640136 605.194283 507.061186 581.053758 492.296421 562.588293 C477.531655 544.122829 451.605272 532.946175 429.480211 541.280043 C433.160604 547.331845 442.276226 543.707077 449.356518 543.509404 C456.662032 543.305430 463.481867 547.807282 467.814075 553.693208 C472.146284 559.579134 474.382276 566.718408 476.266522 573.779694 C485.947529 610.059661 488.210914 648.301954 482.876990 685.470584 C480.705827 700.599994 477.020242 716.133002 467.470409 728.066721 C457.920575 740.000440 441.117716 747.292637 426.883342 741.725271 C410.340542 735.255032 403.913120 715.439698 401.286884 697.871798 C393.606424 646.494259 401.115962 592.940427 422.631093 545.656814 C411.193788 550.999202 405.769267 564.047800 402.316422 576.189913 C384.767509 637.901597 392.331663 704.598689 412.312809 765.566303 C413.861229 770.290930 415.562264 775.131131 418.883487 778.831019 C422.204710 782.530908 427.573174 784.839141 432.254500 783.164361 C437.181433 781.401712 439.717181 776.121054 442.136399 771.481120 M799.963372 509.871000 C795.137612 500.670349 788.708961 491.924947 779.708536 486.735315 C764.596946 478.021990 744.618281 481.259704 730.391647 491.353517 C716.165014 501.447330 706.964015 517.263550 700.857322 533.603393 C687.709232 568.784077 687.219128 607.524057 691.645956 644.819578 C692.541006 652.360291 693.726745 660.147778 697.850788 666.523963 C701.974830 672.900148 709.844127 677.476076 717.165584 675.461200 C696.769221 622.149380 701.765274 559.739705 730.383028 510.351589 C736.903912 499.097937 746.190663 487.514296 759.135734 486.252645 C768.117982 485.377218 777.030218 489.980158 783.014609 496.735467 C788.999001 503.490776 792.400128 512.162878 794.605340 520.914117 C800.122069 542.806888 798.794786 565.766599 797.431016 588.302522 C796.281779 607.293358 795.084668 626.539918 789.061000 644.586747 C783.037331 662.633575 771.517060 679.647852 754.498909 688.154035 C756.799864 695.763991 767.428179 697.962612 774.447995 694.230583 C781.467810 690.498553 785.543182 683.011643 788.904000 675.806731 C798.076313 656.143143 804.939830 635.403777 809.308604 614.150499 C816.476879 579.278168 816.499826 541.398914 799.963372 509.871000 M433.303809 705.216206 C434.080374 713.000580 434.856938 720.784953 435.633503 728.569327 C436.348341 729.031881 437.063180 729.494434 437.778019 729.956988 C441.678501 727.949600 440.926345 722.129567 439.009344 718.183877 C437.092343 714.238187 434.553915 709.636775 436.663936 705.790845 C435.543894 705.599299 434.423852 705.407752 433.303810 705.216205 M410.893751 588.079664 C412.259632 590.538679 416.373205 589.544070 417.757807 587.095547 C419.142409 584.647024 418.788522 581.641416 418.825610 578.828764 C418.839894 577.745527 418.918449 576.663140 419.060724 575.589192 C419.377227 574.703047 418.097956 573.939955 417.235127 574.315391 C416.372299 574.690828 415.942168 575.643749 415.588228 576.515616 C414.023404 580.370300 412.458578 584.224982 410.893751 588.079664 M725.889681 543.046813 C729.651948 537.880360 732.202519 531.837379 733.279793 525.537667 C732.326071 524.964510 731.101553 524.867094 730.069206 525.282250 C726.821297 530.708398 723.470701 537.203823 725.889680 543.046813 M414.813852 702.858922 C411.870058 707.402744 411.481852 713.490498 413.824645 718.371437 C414.477152 719.449649 416.286618 719.514351 417.014468 718.485497 C418.412554 713.057067 419.336234 706.171106 414.813852 702.858922 M443.020930 571.658148 C443.483086 569.880808 443.945242 568.103467 444.407398 566.326126 C443.276886 565.950068 442.146373 565.574010 441.015860 565.197952 C437.725818 569.799011 437.519931 576.395813 440.516650 581.193082 C442.661455 578.569334 443.599647 574.997210 443.020930 571.658148 M773.544116 520.707603 C772.604976 520.617536 771.665837 520.527470 770.726697 520.437404 C771.360737 526.813090 771.994776 533.188776 772.628816 539.564462 C773.769144 540.942324 775.347382 538.289907 775.164907 536.510707 C774.624642 531.243005 774.084379 525.975304 773.544116 520.707603 M286.641229 1193.136783 C287.546643 1192.139216 286.980625 1190.414973 285.864689 1189.660253 C284.748754 1188.905532 283.318584 1188.848369 281.971772 1188.816580 C281.190364 1188.798134 280.356342 1188.793609 279.697912 1189.214805 C278.286727 1190.117538 278.656087 1192.464518 279.972237 1193.500915 C281.288387 1194.537311 283.089129 1194.634614 284.763499 1194.688024 C285.295252 1193.993244 285.827005 1193.298464 286.358758 1192.603684 M406.002258 652.003445 C406.298067 651.185868 407.763225 651.301099 407.927588 652.154866 C408.975218 648.480269 407.673829 644.245331 404.743459 641.793164 C404.184325 645.223705 404.626646 648.811434 406.002258 652.003445 M733.931721 657.820751 C732.290959 657.294236 730.995788 659.717304 731.778084 661.252664 C732.560381 662.788025 734.359633 663.455105 735.997815 663.989593 C736.537967 661.844297 735.614979 659.408488 733.788787 658.159857 M748.049955 676.122462 C747.950786 677.434030 749.054034 678.717572 750.365617 678.816551 C751.677199 678.915529 752.960581 677.812095 753.059370 676.500498 C751.854133 674.817414 749.166600 674.463751 747.566965 675.777730 M443.962164 717.202758 C442.629969 718.276086 444.881491 720.538868 446.323364 719.618119 C447.765237 718.697369 447.686149 716.488361 446.840298 715.001313 C445.617615 715.238716 444.516781 716.041634 443.917199 717.133339 M415.769821 597.088020 C415.763264 595.037549 414.642795 593.024429 412.903586 591.938323 C411.687293 594.124439 413.254346 597.304666 415.728904 597.672119 M772.344624 565.595565 C772.124097 567.114292 772.306874 568.689724 772.869261 570.117619 C774.070700 568.872717 774.916990 567.288778 775.284035 565.598061 C774.851279 564.433941 772.830545 564.456920 772.424374 565.630580 M426.302048 551.540561 C425.076786 552.366638 425.438781 554.632362 426.860440 555.035539 C427.672729 554.230775 428.485017 553.426011 429.297305 552.621247 C428.748145 551.713835 428.198984 550.806423 427.649823 549.899011 C427.139064 550.382866 426.628306 550.866720 426.117548 551.350574 z"/></svg>